<?xml version="1.0" standalone="no"?>
<!DOCTYPE svg PUBLIC "-//W3C//DTD SVG 20010904//EN"
 "http://www.w3.org/TR/2001/REC-SVG-20010904/DTD/svg10.dtd">
<svg version="1.0" xmlns="http://www.w3.org/2000/svg"
 width="260.000000pt" height="260.000000pt" viewBox="0 0 260.000000 260.000000"
 preserveAspectRatio="xMidYMid meet">
<metadata>
Created by potrace 1.14, written by Peter Selinger 2001-2017
</metadata>
<g transform="translate(0.000000,260.000000) scale(0.100000,-0.100000)"
fill="#000000" stroke="none">
<path d="M1285 2590 c7 -11 6 -11 -60 -12 -25 -1 -48 2 -51 5 -3 3 -18 1 -32
-4 -18 -7 -28 -6 -34 3 -6 10 -8 8 -8 -4 0 -18 -10 -21 -77 -20 -19 0 -32 -4
-30 -11 1 -7 -11 -11 -32 -10 -24 1 -44 -6 -64 -23 -16 -14 -36 -23 -44 -20
-7 3 -16 -1 -19 -9 -4 -8 -10 -12 -15 -10 -5 3 -19 -1 -32 -10 -13 -8 -27 -12
-30 -8 -4 3 -7 -1 -7 -10 0 -10 -7 -15 -19 -12 -11 2 -22 -3 -25 -11 -3 -8
-15 -14 -26 -14 -11 0 -20 -4 -20 -10 0 -5 -13 -16 -30 -25 -36 -19 -91 -71
-83 -79 4 -3 1 -6 -6 -6 -14 0 -81 -67 -73 -75 3 -3 -2 -5 -11 -5 -15 0 -22
-11 -18 -32 0 -5 -4 -8 -9 -8 -22 0 -26 -4 -48 -52 -12 -27 -29 -51 -37 -54
-8 -4 -12 -10 -9 -16 3 -5 -6 -23 -22 -39 -15 -16 -24 -29 -19 -29 4 0 1 -8
-8 -18 -10 -10 -14 -22 -11 -25 4 -4 0 -9 -9 -13 -8 -3 -14 -14 -12 -24 2 -10
-2 -21 -9 -23 -8 -3 -13 -18 -13 -32 0 -15 -5 -30 -10 -34 -5 -3 -10 -22 -11
-41 -2 -19 -6 -37 -10 -40 -4 -3 -9 -23 -11 -45 -2 -22 -7 -48 -12 -57 -14
-26 -11 -366 4 -371 7 -2 11 -18 9 -40 -2 -22 1 -37 7 -37 6 0 11 -14 11 -30
0 -17 6 -33 14 -36 8 -3 11 -15 8 -29 -3 -16 1 -27 11 -31 8 -3 13 -13 10 -23
-2 -10 2 -24 10 -32 7 -8 12 -20 10 -27 -3 -6 3 -19 11 -28 9 -8 14 -20 11
-25 -4 -5 0 -9 9 -9 8 0 13 -8 12 -17 -2 -10 5 -24 15 -33 10 -8 19 -22 21
-29 2 -8 19 -30 38 -48 19 -17 32 -35 28 -38 -7 -7 169 -185 184 -185 6 0 20
-10 32 -23 12 -13 27 -22 33 -20 17 6 26 -16 10 -23 -9 -3 -14 -16 -12 -33 2
-21 -2 -27 -19 -29 -11 0 -22 -6 -24 -12 -5 -14 -43 -13 -40 1 4 15 -41 19
-55 5 -7 -7 -23 -12 -36 -13 -13 -1 -28 -7 -32 -14 -4 -7 -14 -9 -23 -6 -9 4
-16 2 -16 -4 0 -15 -26 -39 -34 -32 -3 4 -6 1 -6 -6 0 -14 -68 -81 -83 -81 -5
0 -8 -3 -4 -6 3 -4 -1 -13 -9 -21 -8 -9 -13 -22 -10 -29 3 -7 -11 -29 -30 -48
-18 -18 -34 -41 -34 -51 0 -9 -4 -14 -8 -11 -4 2 -9 -5 -9 -17 -1 -12 -7 -23
-13 -25 -5 -2 -10 -12 -10 -23 0 -10 -4 -19 -10 -19 -5 0 -10 -4 -10 -10 0 -7
330 -10 970 -10 963 0 970 0 970 20 0 11 -4 20 -10 20 -5 0 -10 7 -10 15 0 8
-9 24 -21 36 -11 11 -21 29 -22 39 -1 11 -3 17 -5 15 -2 -2 -41 35 -87 81 -46
46 -91 84 -99 84 -9 0 -16 5 -16 11 0 6 -15 10 -32 9 -52 -3 -68 -1 -68 10 0
6 10 10 23 10 12 0 29 6 38 13 20 15 31 57 16 57 -7 0 1 9 17 19 17 11 33 18
36 16 4 -2 13 5 20 16 8 10 20 19 27 19 7 0 23 11 35 25 11 13 24 22 28 20 11
-7 250 231 250 248 0 8 11 22 24 32 13 10 22 24 19 32 -3 7 0 13 6 13 6 0 11
7 11 16 0 8 5 12 10 9 9 -5 11 -1 10 20 -1 3 6 13 15 21 8 9 13 20 9 25 -3 5
2 12 10 15 9 3 14 10 11 14 -3 5 1 14 8 22 7 7 13 23 14 36 2 40 3 43 14 36 7
-4 10 3 7 18 -1 14 2 31 8 39 14 18 25 61 14 54 -4 -3 -6 4 -3 15 3 11 10 20
15 20 6 0 8 14 6 30 -3 16 -1 30 4 30 5 0 6 5 3 11 -13 20 -11 81 2 86 16 6
19 293 3 293 -5 0 -10 14 -10 30 0 17 -5 30 -11 30 -5 0 -7 5 -4 10 3 6 2 10
-2 10 -5 0 -8 14 -7 30 1 17 -2 30 -7 30 -5 0 -9 16 -9 36 0 21 -4 33 -10 29
-9 -5 -15 15 -11 38 0 4 -3 7 -7 7 -7 0 -33 42 -37 60 0 3 -6 15 -13 28 -7 12
-9 22 -5 22 4 0 2 4 -6 9 -8 5 -16 17 -17 25 -1 9 -16 29 -33 45 -18 16 -30
33 -29 38 4 11 -188 203 -203 203 -6 0 -24 14 -39 30 -15 17 -35 30 -44 30 -9
0 -16 5 -16 10 0 6 -9 10 -19 10 -11 0 -21 5 -23 11 -2 5 -11 11 -20 12 -9 2
-22 8 -30 15 -8 6 -18 9 -21 5 -4 -3 -9 1 -13 10 -3 9 -12 13 -20 10 -7 -3
-16 2 -20 10 -3 9 -14 14 -24 12 -10 -2 -21 3 -24 11 -4 10 -18 14 -41 12 -20
-1 -39 2 -43 7 -4 6 -18 12 -32 14 -14 1 -27 7 -30 11 -3 5 -33 8 -66 8 -33
-1 -65 1 -70 4 -5 3 -18 2 -28 -2 -25 -8 -68 -1 -60 11 3 5 -7 9 -21 9 -15 0
-24 -4 -20 -10z"/>
<path d="M2098 104 c-12 -11 -10 -44 2 -44 6 0 10 -13 10 -30 0 -30 0 -30 57
-30 l56 0 -43 43 c-24 23 -49 41 -56 39 -7 -1 -14 5 -16 14 -2 9 -6 12 -10 8z"/>
</g>
</svg>
